<svg xmlns="http://www.w3.org/2000/svg" viewBox="0 0 48 48">
  <rect width="48" height="48" rx="12" fill="#fff" stroke="#e8eaed" stroke-width="1"/>
  <!-- Google G multi-color -->
  <path fill="#4285F4" d="M35.7 24.3c0-.9-.1-1.7-.2-2.5H24v4.7h6.6c-.3 1.5-1.1 2.8-2.4 3.7v3h3.8c2.2-2 3.7-5 3.7-8.9z"/>
  <path fill="#34A853" d="M24 36c3.3 0 6.1-1.1 8.1-3l-3.8-3c-1.1.7-2.5 1.1-4.3 1.1-3.3 0-6.1-2.2-7.1-5.2h-4v3.1C14.9 33.4 19.2 36 24 36z"/>
  <path fill="#FBBC05" d="M16.9 25.9c-.3-.7-.4-1.5-.4-2.3s.2-1.6.4-2.3v-3.1h-4C12 20 11.5 22 11.5 24s.5 4 1.4 5.8l3.9-3.1v.2z"/>
  <path fill="#EA4335" d="M24 16.5c1.9 0 3.5.6 4.8 1.8l3.5-3.5C30.1 12.9 27.3 12 24 12c-4.8 0-9.1 2.6-11.1 6.5l4 3.1c1-3 3.8-5.1 7.1-5.1z"/>
</svg>
